<svg width="1200" height="630" viewBox="0 0 1200 630" fill="none" xmlns="http://www.w3.org/2000/svg">
<g clip-path="url(#clip0_942_106)">
<path d="M1200 0H0V630H1200V0Z" fill="#0C0E13"/>
<path d="M1108 80H92C85.3726 80 80 85.3726 80 92V538C80 544.627 85.3726 550 92 550H1108C1114.63 550 1120 544.627 1120 538V92C1120 85.3726 1114.63 80 1108 80Z" stroke="#2E3440" stroke-width="1.5"/>
<path d="M110 118C114.418 118 118 114.418 118 110C118 105.582 114.418 102 110 102C105.582 102 102 105.582 102 110C102 114.418 105.582 118 110 118Z" fill="#2E3440"/>
<path d="M140 118C144.418 118 148 114.418 148 110C148 105.582 144.418 102 140 102C135.582 102 132 105.582 132 110C132 114.418 135.582 118 140 118Z" fill="#2E3440"/>
<path d="M170 118C174.418 118 178 114.418 178 110C178 105.582 174.418 102 170 102C165.582 102 162 105.582 162 110C162 114.418 165.582 118 170 118Z" fill="#2E3440"/>
<path d="M117.493 182.997V181.031C116.934 181.031 116.354 181.003 115.753 180.944C115.152 180.886 114.589 180.798 114.063 180.681C113.537 180.556 112.932 180.339 112.248 180.03V177.627C112.799 177.911 113.337 178.152 113.863 178.353C114.397 178.553 114.956 178.712 115.54 178.829C116.133 178.946 116.783 179.029 117.493 179.079V172.107L116.153 171.381C113.617 170.021 112.348 168.376 112.348 166.45C112.348 165.423 112.77 164.426 113.612 163.458C114.455 162.481 115.749 161.917 117.493 161.767V159.689H119.245V161.767C120.23 161.767 121.394 161.939 122.738 162.281V164.446L122.3 164.321C121.039 163.971 120.021 163.758 119.245 163.682V170.492L120.647 171.293C121.966 172.052 122.867 172.799 123.351 173.534C123.843 174.268 124.089 175.048 124.089 175.874C124.089 176.617 123.902 177.34 123.526 178.039C123.159 178.733 122.629 179.329 121.937 179.83C121.244 180.331 120.347 180.677 119.245 180.87V182.997H117.493ZM117.493 169.441V163.658C116.65 163.85 115.999 164.167 115.54 164.609C115.089 165.051 114.864 165.569 114.864 166.161C114.864 166.72 115.056 167.258 115.44 167.776C115.832 168.285 116.516 168.84 117.493 169.441ZM119.245 173.146V178.903C120.155 178.578 120.768 178.182 121.085 177.715C121.411 177.238 121.574 176.709 121.574 176.124C121.574 175.558 121.415 175.073 121.098 174.673C120.781 174.265 120.163 173.754 119.245 173.146ZM143.554 181.057L141.276 167.075H143.441L144.768 175.586L145.119 177.564L145.457 175.586L147.685 167.075H149.775L152.291 175.586L152.729 177.564L153.017 175.586L154.356 167.075H156.146L153.881 181.057H151.703L149.024 172.057L148.598 170.08H148.536L148.148 172.045L145.82 181.057H143.554ZM158.362 181.057V160.853H160.69V170.13C161.358 169.053 162.163 168.209 163.106 167.601C164.049 166.992 164.992 166.687 165.935 166.687C166.728 166.687 167.45 166.892 168.101 167.301C168.76 167.701 169.219 168.189 169.477 168.764C169.686 169.207 169.828 169.678 169.903 170.18C169.978 170.672 170.016 171.693 170.016 173.246V181.057H167.687V172.958C167.687 171.614 167.621 170.729 167.487 170.304C167.362 169.871 167.124 169.516 166.774 169.24C166.432 168.964 166.056 168.827 165.647 168.827C164.829 168.827 163.949 169.216 163.006 169.991C162.071 170.768 161.299 171.739 160.69 172.908V181.057H158.362ZM179.516 181.445C177.514 181.445 175.911 180.748 174.71 179.355C173.508 177.952 172.907 176.187 172.907 174.059C172.907 171.932 173.508 170.171 174.71 168.777C175.911 167.384 177.514 166.687 179.516 166.687C181.511 166.687 183.109 167.384 184.311 168.777C185.512 170.171 186.113 171.932 186.113 174.059C186.113 176.187 185.512 177.952 184.311 179.355C183.109 180.748 181.511 181.445 179.516 181.445ZM179.516 179.504C180.76 179.504 181.749 179.02 182.483 178.052C183.217 177.084 183.585 175.754 183.585 174.059C183.585 172.374 183.217 171.047 182.483 170.08C181.749 169.111 180.76 168.627 179.516 168.627C178.265 168.627 177.272 169.111 176.537 170.08C175.803 171.047 175.436 172.374 175.436 174.059C175.436 175.754 175.803 177.084 176.537 178.052C177.272 179.02 178.265 179.504 179.516 179.504ZM198.342 177.915C197.633 179.083 196.778 179.963 195.776 180.556C194.784 181.149 193.87 181.445 193.036 181.445C191.867 181.445 190.816 180.94 189.881 179.93C188.954 178.92 188.492 177.39 188.492 175.336C188.492 173.717 188.801 172.274 189.417 171.005C190.035 169.728 190.862 168.723 191.896 167.989C192.931 167.246 194.212 166.875 195.739 166.875C196.181 166.875 196.849 166.92 197.741 167.012C197.876 167.029 198.076 167.049 198.342 167.075H200.683V176.951C200.683 178.637 200.858 180.006 201.21 181.057H198.781C198.597 180.289 198.451 179.242 198.342 177.915ZM198.342 175.149V169.153C197.517 168.936 196.749 168.827 196.039 168.827C194.605 168.827 193.406 169.382 192.447 170.492C191.495 171.602 191.019 173.112 191.019 175.023C191.019 176.409 191.278 177.456 191.796 178.165C192.322 178.866 192.918 179.216 193.586 179.216C194.312 179.216 195.113 178.849 195.989 178.115C196.866 177.381 197.65 176.392 198.342 175.149ZM203.5 181.057V167.075H205.539V170.28C206.183 168.92 206.779 167.98 207.33 167.463C207.889 166.946 208.453 166.687 209.019 166.687C209.696 166.687 210.238 166.953 210.647 167.488C211.064 168.013 211.273 168.764 211.273 169.741V170.492C211.548 169.641 211.878 168.953 212.262 168.426C212.655 167.893 213.058 167.471 213.476 167.162C213.893 166.846 214.373 166.687 214.916 166.687C215.517 166.687 216.03 166.942 216.455 167.451C216.881 167.959 217.093 168.973 217.093 170.492V181.057H215.053V171.506C215.053 170.722 215.028 170.187 214.978 169.904C214.928 169.612 214.828 169.39 214.677 169.24C214.527 169.09 214.364 169.014 214.19 169.014C213.756 169.014 213.288 169.349 212.788 170.017C212.296 170.676 211.791 171.773 211.273 173.308V181.057H209.321V171.519C209.321 170.283 209.199 169.558 208.957 169.34C208.716 169.123 208.498 169.014 208.307 169.014C207.881 169.014 207.422 169.386 206.929 170.13C206.446 170.872 205.983 171.823 205.539 172.983V181.057H203.5ZM223.865 181.057V169.014H219.985V167.075H226.194V179.116H230.087V181.057H223.865ZM223.478 162.03C223.478 161.504 223.657 161.112 224.016 160.853C224.374 160.594 224.712 160.466 225.03 160.466C225.354 160.466 225.697 160.594 226.056 160.853C226.414 161.112 226.594 161.504 226.594 162.03C226.594 162.548 226.414 162.936 226.056 163.194C225.697 163.453 225.354 163.582 225.03 163.582C224.712 163.582 224.374 163.453 224.016 163.194C223.657 162.936 223.478 162.548 223.478 162.03Z" fill="#7C9BD6"/>
<path d="M115.4 239.827H112L120.377 212.629H123.969L132.398 239.827H128.666L126.808 233.852H117.24L115.4 239.827ZM118.081 231.135H126.019L122.742 220.813L121.971 218.079L121.288 220.813L118.081 231.135ZM137.358 239.827V220.253H140.617V224.528C141.634 222.917 142.796 221.713 144.104 220.918C145.425 220.112 146.891 219.71 148.503 219.71C149.683 219.71 150.863 219.89 152.043 220.253V227.315H148.906V222.846C148.357 222.753 147.925 222.707 147.609 222.707C146.394 222.707 145.203 223.185 144.034 224.143C142.866 225.101 141.727 226.538 140.617 228.454V239.827H137.358ZM157.476 238.793V235.341C158.784 236.193 160.169 236.796 161.629 237.146C163.089 237.485 164.328 237.655 165.344 237.655C166.991 237.655 168.177 237.392 168.902 236.865C169.626 236.328 169.988 235.663 169.988 234.868C169.988 234.342 169.819 233.893 169.48 233.518C169.141 233.144 168.3 232.683 166.956 232.134L165.835 231.679L163.574 230.784C161.144 229.838 159.614 228.962 158.983 228.157C158.34 227.362 158.019 226.392 158.019 225.247C158.019 223.635 158.638 222.309 159.876 221.268C161.127 220.229 163.148 219.71 165.94 219.71C168.031 219.71 170.011 220.013 171.881 220.621V223.582C169.731 222.812 167.71 222.426 165.817 222.426C164.439 222.426 163.358 222.671 162.575 223.162C161.804 223.641 161.419 224.242 161.419 224.966C161.419 225.667 161.757 226.229 162.435 226.649C163.101 227.07 164.187 227.554 165.695 228.104L167.903 228.909C169.924 229.646 171.343 230.446 172.161 231.31C172.979 232.175 173.388 233.256 173.388 234.553C173.388 236.246 172.733 237.643 171.425 238.74C170.128 239.827 168.049 240.371 165.186 240.371C162.686 240.371 160.116 239.845 157.476 238.793ZM191.666 235.428C190.673 237.064 189.476 238.297 188.073 239.126C186.683 239.955 185.404 240.371 184.235 240.371C182.6 240.371 181.128 239.663 179.819 238.251C178.522 236.837 177.874 234.692 177.874 231.819C177.874 229.552 178.306 227.531 179.171 225.755C180.035 223.968 181.192 222.56 182.641 221.532C184.089 220.492 185.883 219.972 188.021 219.972C188.64 219.972 189.574 220.037 190.824 220.165C191.011 220.188 191.292 220.217 191.666 220.253H194.942V234.08C194.942 236.439 195.189 238.356 195.678 239.827H192.279C192.023 238.752 191.817 237.287 191.666 235.428ZM191.666 231.556V223.162C190.509 222.858 189.435 222.707 188.441 222.707C186.432 222.707 184.755 223.483 183.412 225.037C182.08 226.59 181.414 228.705 181.414 231.38C181.414 233.32 181.776 234.786 182.5 235.779C183.236 236.76 184.072 237.251 185.006 237.251C186.023 237.251 187.144 236.737 188.371 235.709C189.597 234.681 190.696 233.297 191.666 231.556ZM200.358 239.827V220.253H203.618V224.528C204.552 223.022 205.679 221.841 206.999 220.989C208.319 220.135 209.639 219.71 210.96 219.71C212.117 219.71 213.168 220.019 214.114 220.638C215.06 221.245 215.72 222.046 216.094 223.038C216.48 224.032 216.672 225.983 216.672 228.892V239.827H213.413V228.489C213.413 226.608 213.319 225.37 213.133 224.774C212.958 224.166 212.625 223.67 212.134 223.285C211.656 222.899 211.129 222.707 210.557 222.707C209.412 222.707 208.179 223.249 206.859 224.336C205.55 225.423 204.47 226.784 203.618 228.419V239.827H200.358ZM259.817 239.809C257.902 240.371 256.144 240.651 254.543 240.651C252.276 240.651 250.255 240.09 248.48 238.968C246.715 237.847 245.33 236.159 244.327 233.904C243.322 231.638 242.819 229.08 242.819 226.229C242.819 223.413 243.31 220.884 244.291 218.641C245.273 216.398 246.657 214.698 248.444 213.54C250.232 212.384 252.194 211.806 254.332 211.806C255.945 211.806 257.768 212.186 259.8 212.944V216.169C257.919 215.082 256.05 214.539 254.193 214.539C252.79 214.539 251.505 215.018 250.337 215.977C249.181 216.935 248.245 218.342 247.533 220.201C246.833 222.046 246.481 224.066 246.481 226.263C246.481 229.208 247.153 231.889 248.496 234.307C249.841 236.725 251.961 237.934 254.858 237.934C255.232 237.934 255.705 237.906 256.278 237.847V229.085H253.562V226.369H259.817V239.809ZM264.637 239.827V236.83L276.64 222.969H264.917V220.253H280.952V222.969L268.86 236.83H281.355V239.827H264.637ZM291.134 239.827V224.598H286.787V221.882H291.134V220.971C291.134 218.389 291.426 216.48 292.01 215.24C292.594 214.002 293.493 212.985 294.708 212.191C295.935 211.397 297.554 211 299.563 211C301.081 211 302.623 211.158 304.19 211.473V214.575C302.495 214.013 300.994 213.734 299.686 213.734C298.646 213.734 297.728 213.926 296.934 214.312C296.14 214.698 295.515 215.329 295.06 216.204C294.615 217.069 294.393 218.541 294.393 220.621V221.882H302.157V224.598H294.393V239.827H291.134Z" fill="#EEF2FF"/>
<path d="M112 307.467V305.506C113.172 305.852 114.159 306.025 114.963 306.025C115.661 306.025 116.255 305.9 116.743 305.653C117.231 305.412 117.61 305.003 117.881 304.425C118.159 303.846 118.298 302.84 118.298 301.405V291.695H112.958V289.949H120.393V301.01C120.393 303.145 120.141 304.624 119.638 305.449C119.135 306.284 118.527 306.881 117.813 307.241C117.1 307.601 116.123 307.782 114.884 307.782C113.99 307.782 113.029 307.677 112 307.467ZM117.948 285.409C117.948 284.934 118.106 284.582 118.421 284.349C118.744 284.117 119.052 284 119.345 284C119.638 284 119.942 284.117 120.258 284.349C120.581 284.582 120.742 284.934 120.742 285.409C120.742 285.874 120.581 286.223 120.258 286.456C119.942 286.689 119.638 286.805 119.345 286.805C119.052 286.805 118.744 286.689 118.421 286.456C118.106 286.223 117.948 285.874 117.948 285.409ZM133.934 299.704C133.296 300.755 132.526 301.548 131.625 302.081C130.731 302.614 129.909 302.881 129.158 302.881C128.106 302.881 127.16 302.427 126.319 301.518C125.485 300.609 125.068 299.231 125.068 297.383C125.068 295.927 125.346 294.627 125.902 293.485C126.458 292.337 127.201 291.432 128.132 290.77C129.064 290.103 130.217 289.768 131.591 289.768C131.989 289.768 132.59 289.809 133.393 289.892C133.514 289.906 133.694 289.926 133.934 289.949H136.041V298.837C136.041 300.354 136.199 301.586 136.514 302.532H134.328C134.163 301.841 134.032 300.899 133.934 299.704ZM133.934 297.215V291.819C133.191 291.623 132.5 291.525 131.861 291.525C130.57 291.525 129.492 292.025 128.628 293.024C127.772 294.022 127.344 295.382 127.344 297.102C127.344 298.348 127.577 299.292 128.042 299.93C128.515 300.561 129.052 300.876 129.653 300.876C130.307 300.876 131.028 300.545 131.816 299.885C132.605 299.224 133.311 298.334 133.934 297.215ZM150.112 302.172C148.707 302.645 147.37 302.881 146.101 302.881C144.839 302.881 143.717 302.592 142.733 302.014C141.756 301.428 140.994 300.639 140.446 299.648C139.898 298.649 139.623 297.515 139.623 296.246C139.623 294.338 140.243 292.753 141.482 291.492C142.729 290.229 144.231 289.599 145.988 289.599C147.288 289.599 148.662 289.844 150.112 290.331V292.348C148.647 291.679 147.337 291.345 146.18 291.345C145.414 291.345 144.693 291.537 144.017 291.92C143.341 292.296 142.819 292.885 142.451 293.689C142.083 294.493 141.899 295.318 141.899 296.167C141.899 297.301 142.252 298.383 142.958 299.411C143.671 300.44 144.787 300.955 146.304 300.955C146.762 300.955 147.213 300.925 147.656 300.864C148.099 300.796 148.918 300.561 150.112 300.156V302.172ZM153.942 302.532V284.349H156.037V295.773L162.087 289.949H164.881L158.843 295.773L165.039 302.532H162.155L156.037 295.773V302.532H153.942ZM186.274 302.881C184.472 302.881 183.03 302.254 181.948 301C180.867 299.738 180.326 298.15 180.326 296.235C180.326 294.32 180.867 292.734 181.948 291.48C183.03 290.226 184.472 289.599 186.274 289.599C188.069 289.599 189.507 290.226 190.589 291.48C191.671 292.734 192.212 294.32 192.212 296.235C192.212 298.15 191.671 299.738 190.589 301C189.507 302.254 188.069 302.881 186.274 302.881ZM186.274 301.135C187.393 301.135 188.283 300.699 188.944 299.829C189.606 298.957 189.935 297.759 189.935 296.235C189.935 294.717 189.606 293.524 188.944 292.652C188.283 291.78 187.393 291.345 186.274 291.345C185.148 291.345 184.254 291.78 183.593 292.652C182.932 293.524 182.602 294.717 182.602 296.235C182.602 297.759 182.932 298.957 183.593 299.829C184.254 300.699 185.148 301.135 186.274 301.135ZM197.878 302.532V292.742H195.084V290.996H197.878V290.41C197.878 288.75 198.065 287.522 198.441 286.726C198.817 285.93 199.395 285.277 200.177 284.766C200.965 284.255 202.004 284 203.296 284C204.273 284 205.264 284.101 206.271 284.304V286.298C205.182 285.938 204.217 285.757 203.376 285.757C202.707 285.757 202.117 285.882 201.607 286.129C201.096 286.376 200.694 286.783 200.401 287.345C200.116 287.902 199.974 288.848 199.974 290.185V290.996H204.964V292.742H199.974V302.532H197.878ZM230.932 299.704C230.293 300.755 229.523 301.548 228.622 302.081C227.728 302.614 226.906 302.881 226.154 302.881C225.103 302.881 224.157 302.427 223.315 301.518C222.482 300.609 222.066 299.231 222.066 297.383C222.066 295.927 222.344 294.627 222.899 293.485C223.455 292.337 224.198 291.432 225.129 290.77C226.061 290.103 227.213 289.768 228.588 289.768C228.986 289.768 229.587 289.809 230.391 289.892C230.511 289.906 230.691 289.926 230.932 289.949H233.038V298.837C233.038 300.354 233.195 301.586 233.512 302.532H231.325C231.161 301.841 231.029 300.899 230.932 299.704ZM230.932 297.215V291.819C230.188 291.623 229.497 291.525 228.859 291.525C227.567 291.525 226.489 292.025 225.625 293.024C224.769 294.022 224.341 295.382 224.341 297.102C224.341 298.348 224.574 299.292 225.039 299.93C225.512 300.561 226.049 300.876 226.65 300.876C227.304 300.876 228.025 300.545 228.814 299.885C229.602 299.224 230.309 298.334 230.932 297.215ZM239.899 302.532V286.107H236.136V284.349H241.995V300.786H245.926V302.532H239.899ZM253.755 302.532V286.107H249.993V284.349H255.851V300.786H259.783V302.532H253.755ZM288.612 302.024C287.627 302.438 286.915 302.682 286.471 302.758C286.028 302.84 285.599 302.881 285.187 302.881C284.307 302.881 283.504 302.713 282.776 302.374C282.048 302.036 281.495 301.537 281.12 300.876C280.752 300.214 280.567 299.194 280.567 297.811V292.742H277.424V290.996H280.567V285.927H282.663V290.996H288.262V292.742H282.663V297.778C282.663 298.792 282.783 299.51 283.023 299.93C283.264 300.343 283.583 300.646 283.982 300.843C284.387 301.037 284.864 301.135 285.412 301.135C286.426 301.135 287.493 300.816 288.612 300.177V302.024ZM293.016 302.532V289.949H295.112V292.697C295.765 291.661 296.513 290.887 297.353 290.377C298.202 289.858 299.145 289.599 300.181 289.599C300.94 289.599 301.699 289.715 302.457 289.949V294.489H300.44V291.615C300.087 291.556 299.809 291.525 299.607 291.525C298.826 291.525 298.06 291.833 297.309 292.449C296.557 293.065 295.826 293.989 295.112 295.221V302.532H293.016ZM314.072 299.704C313.433 300.755 312.663 301.548 311.762 302.081C310.868 302.614 310.047 302.881 309.296 302.881C308.243 302.881 307.297 302.427 306.457 301.518C305.622 300.609 305.206 299.231 305.206 297.383C305.206 295.927 305.484 294.627 306.04 293.485C306.595 292.337 307.338 291.432 308.27 290.77C309.201 290.103 310.354 289.768 311.729 289.768C312.127 289.768 312.727 289.809 313.531 289.892C313.651 289.906 313.832 289.926 314.072 289.949H316.179V298.837C316.179 300.354 316.337 301.586 316.652 302.532H314.466C314.301 301.841 314.169 300.899 314.072 299.704ZM314.072 297.215V291.819C313.328 291.623 312.637 291.525 311.999 291.525C310.707 291.525 309.629 292.025 308.765 293.024C307.91 294.022 307.482 295.382 307.482 297.102C307.482 298.348 307.714 299.292 308.179 299.93C308.654 300.561 309.191 300.876 309.791 300.876C310.444 300.876 311.166 300.545 311.954 299.885C312.742 299.224 313.449 298.334 314.072 297.215ZM328.064 299.704C327.425 300.755 326.656 301.548 325.754 302.081C324.86 302.614 324.039 302.881 323.288 302.881C322.235 302.881 321.289 302.427 320.449 301.518C319.614 300.609 319.198 299.231 319.198 297.383C319.198 295.927 319.476 294.627 320.032 293.485C320.587 292.337 321.33 291.432 322.262 290.77C323.193 290.103 324.346 289.768 325.72 289.768C326.119 289.768 326.719 289.809 327.523 289.892C327.643 289.906 327.824 289.926 328.064 289.949V284.349H330.171V302.532H328.064V299.704ZM328.064 297.215V291.819C327.32 291.623 326.629 291.525 325.991 291.525C324.699 291.525 323.621 292.025 322.758 293.024C321.902 294.022 321.474 295.382 321.474 297.102C321.474 298.348 321.706 299.292 322.171 299.93C322.645 300.561 323.183 300.876 323.782 300.876C324.436 300.876 325.158 300.545 325.946 299.885C326.734 299.224 327.441 298.334 328.064 297.215ZM343.982 301.699C342.307 302.495 340.722 302.892 339.228 302.892C338.093 302.892 337.08 302.611 336.186 302.047C335.293 301.485 334.575 300.681 334.034 299.636C333.501 298.585 333.234 297.463 333.234 296.268C333.234 295.119 333.491 294.015 334.001 292.956C334.511 291.897 335.225 291.075 336.141 290.488C337.058 289.896 338.079 289.599 339.206 289.599C340.701 289.599 341.898 290.132 342.799 291.198C343.708 292.265 344.163 293.909 344.163 296.133V296.583H335.488C335.488 297.455 335.668 298.251 336.029 298.972C336.396 299.693 336.877 300.234 337.471 300.594C338.064 300.955 338.74 301.135 339.498 301.135C340.851 301.135 342.345 300.685 343.982 299.783V301.699ZM335.612 295.018H341.886V294.713C341.886 293.685 341.635 292.866 341.131 292.257C340.629 291.65 339.956 291.345 339.115 291.345C338.267 291.345 337.531 291.657 336.908 292.28C336.291 292.896 335.859 293.808 335.612 295.018ZM347.52 301.867V299.648C348.361 300.197 349.25 300.582 350.19 300.808C351.128 301.026 351.924 301.135 352.578 301.135C353.636 301.135 354.399 300.966 354.864 300.629C355.331 300.282 355.563 299.854 355.563 299.344C355.563 299.006 355.454 298.716 355.236 298.476C355.018 298.235 354.478 297.939 353.615 297.587L352.893 297.293L351.439 296.719C349.878 296.11 348.894 295.548 348.489 295.028C348.075 294.518 347.868 293.895 347.868 293.16C347.868 292.123 348.267 291.27 349.063 290.601C349.867 289.933 351.166 289.599 352.961 289.599C354.305 289.599 355.578 289.794 356.779 290.185V292.089C355.398 291.593 354.099 291.345 352.881 291.345C351.996 291.345 351.301 291.504 350.797 291.819C350.302 292.126 350.054 292.514 350.054 292.979C350.054 293.429 350.272 293.79 350.707 294.061C351.136 294.331 351.834 294.643 352.803 294.995L354.222 295.513C355.522 295.987 356.434 296.501 356.96 297.057C357.486 297.612 357.748 298.307 357.748 299.14C357.748 300.23 357.328 301.127 356.487 301.833C355.654 302.532 354.317 302.881 352.476 302.881C350.869 302.881 349.217 302.544 347.52 301.867Z" fill="#8EAFE6"/>
<path d="M122.196 373.646V372.073C121.749 372.073 121.285 372.05 120.804 372.004C120.323 371.957 119.873 371.887 119.452 371.794C119.031 371.694 118.547 371.52 118 371.272V369.35C118.441 369.576 118.871 369.771 119.292 369.93C119.719 370.092 120.166 370.217 120.634 370.311C121.108 370.404 121.628 370.471 122.196 370.512V364.934L121.124 364.353C119.095 363.265 118.08 361.95 118.08 360.408C118.08 359.586 118.417 358.789 119.092 358.015C119.766 357.233 120.801 356.783 122.196 356.662V355H123.598V356.662C124.386 356.662 125.317 356.8 126.392 357.073V358.806L126.041 358.706C125.033 358.425 124.219 358.254 123.598 358.194V363.642L124.719 364.283C125.774 364.89 126.495 365.488 126.882 366.076C127.276 366.663 127.473 367.287 127.473 367.949C127.473 368.542 127.323 369.12 127.023 369.68C126.729 370.234 126.305 370.712 125.751 371.112C125.197 371.513 124.479 371.79 123.598 371.944V373.646H122.196ZM122.196 362.801V358.175C121.522 358.327 121.001 358.581 120.634 358.935C120.273 359.289 120.093 359.703 120.093 360.177C120.093 360.624 120.246 361.055 120.554 361.469C120.867 361.877 121.415 362.32 122.196 362.801ZM123.598 365.764V370.371C124.325 370.111 124.816 369.794 125.07 369.42C125.33 369.039 125.46 368.615 125.46 368.148C125.46 367.695 125.334 367.308 125.08 366.987C124.826 366.659 124.332 366.253 123.598 365.764ZM141.733 373.646V372.094H152.608V373.646H141.733Z" fill="#4A5A78"/>
</g>
<defs>
<clipPath id="clip0_942_106">
<rect width="1200" height="630" fill="white"/>
</clipPath>
</defs>
</svg>
