<svg width="1200" height="1200" viewBox="0 0 1200 1200" fill="none" xmlns="http://www.w3.org/2000/svg">
<path d="M1132 0H68C30.4446 0 0 30.4446 0 68V1132C0 1169.56 30.4446 1200 68 1200H1132C1169.56 1200 1200 1169.56 1200 1132V68C1200 30.4446 1169.56 0 1132 0Z" fill="#0C0E13"/>
<path d="M104.969 979.6C93.235 979.6 85.5017 976.4 81.7683 970C78.035 964.133 77.7683 955.333 80.9683 943.6C83.635 934 87.9017 927.067 93.7684 922.8C99.635 918 107.102 915.6 116.169 915.6C149.235 915.6 181.502 908.933 212.969 895.6C244.969 882.267 275.369 863.867 304.169 840.4C333.502 816.4 361.235 789.2 387.369 758.8C413.502 727.867 437.502 694.8 459.369 659.6C481.769 624.4 501.769 588.933 519.369 553.2C537.502 516.933 552.702 481.733 564.969 447.6C577.769 412.933 587.369 380.667 593.769 350.8C600.702 320.4 604.169 294.267 604.169 272.4C604.169 261.733 602.835 252.667 600.169 245.2C597.502 237.2 593.502 231.333 588.169 227.6C582.835 223.867 575.635 222 566.569 222C554.302 222 542.569 226.267 531.369 234.8C520.169 243.333 509.769 254.8 500.169 269.2C491.102 283.067 483.902 298.533 478.569 315.6C473.235 332.667 470.569 349.733 470.569 366.8C470.569 385.467 474.569 400.667 482.569 412.4C491.102 423.6 502.569 431.867 516.969 437.2C531.902 442.533 548.702 445.2 567.369 445.2C605.235 445.2 646.569 438 691.369 423.6C736.702 409.2 782.035 389.2 827.369 363.6C873.235 337.467 915.902 306.533 955.369 270.8C962.835 264.4 969.502 259.067 975.369 254.8C981.769 250.533 990.569 249.733 1001.77 252.4C1012.97 255.067 1021.5 260.4 1027.37 268.4C1033.77 275.867 1034.84 286.267 1030.57 299.6C1028.44 306.533 1025.77 314.267 1022.57 322.8C1019.9 330.8 1016.97 339.6 1013.77 349.2C1011.1 358.8 1007.9 368.933 1004.17 379.6C1000.97 390.267 997.502 401.467 993.769 413.2C967.635 494.267 942.835 566 919.369 628.4C896.435 690.8 873.235 744.133 849.769 788.4C826.302 832.667 802.035 868.933 776.969 897.2C752.435 925.467 725.769 946.267 696.969 959.6C668.169 972.933 636.435 979.6 601.769 979.6C560.169 979.6 520.702 970.8 483.369 953.2C446.035 935.6 411.102 910.8 378.569 878.8C346.569 846.8 317.235 808.667 290.569 764.4C263.902 720.133 240.169 671.333 219.369 618C215.102 606.8 212.435 596.4 211.369 586.8C210.835 577.2 214.835 568.667 223.369 561.2C231.369 553.733 238.835 549.2 245.769 547.6C253.235 545.467 262.569 547.333 273.769 553.2C318.569 575.6 363.102 595.067 407.369 611.6C451.635 628.133 496.702 642.533 542.569 654.8C588.435 666.533 635.902 676.4 684.969 684.4C734.035 691.867 785.235 697.467 838.569 701.2C892.435 704.933 949.235 706.8 1008.97 706.8C1016.44 706.8 1020.97 709.733 1022.57 715.6C1024.7 720.933 1023.9 729.733 1020.17 742C1018.04 751.067 1014.57 758 1009.77 762.8C1005.5 767.6 999.902 770 992.969 770C933.235 770 876.169 768.133 821.769 764.4C767.369 760.133 715.102 754 664.969 746C614.835 737.467 565.769 726.8 517.769 714C469.769 700.667 422.302 685.2 375.369 667.6C328.969 649.467 282.302 628.667 235.369 605.2L280.969 593.2C298.569 642.267 318.835 686.533 341.769 726C365.235 764.933 390.569 798.267 417.769 826C445.502 853.2 474.835 874 505.769 888.4C537.235 902.8 570.035 910 604.169 910C631.902 910 656.702 904.4 678.569 893.2C700.435 881.467 720.969 863.333 740.169 838.8C759.369 813.733 778.302 781.467 796.969 742C815.635 702.533 835.102 655.067 855.369 599.6C876.169 544.133 899.102 479.867 924.169 406.8C930.569 386.533 937.235 366 944.169 345.2C951.102 324.4 957.769 303.867 964.169 283.6L997.769 314.8C948.702 356.933 899.102 392.4 848.969 421.2C799.369 450 750.035 471.867 700.969 486.8C652.435 501.733 606.302 509.2 562.569 509.2C540.169 509.2 519.102 506.267 499.369 500.4C479.635 494.533 462.302 485.733 447.369 474C432.435 462.267 420.969 447.6 412.969 430C404.969 412.4 400.969 391.867 400.969 368.4C400.969 343.333 405.502 318.533 414.569 294C423.635 269.467 436.169 246.8 452.169 226C468.169 205.2 486.569 188.667 507.369 176.4C528.169 164.133 550.035 158 572.969 158C594.835 158 612.969 162.267 627.369 170.8C642.302 178.8 653.502 191.067 660.969 207.6C668.969 223.6 672.969 243.6 672.969 267.6C672.969 290.533 669.235 318.267 661.769 350.8C654.835 383.333 644.435 418.8 630.569 457.2C617.235 495.067 600.702 534.267 580.969 574.8C561.235 614.8 538.835 654.267 513.769 693.2C488.702 732.133 460.969 768.933 430.569 803.6C400.702 837.733 368.435 868.133 333.769 894.8C299.102 921.467 262.569 942.267 224.169 957.2C186.302 972.133 146.569 979.6 104.969 979.6Z" fill="url(#paint0_linear_0_1)"/>
<defs>
<linearGradient id="paint0_linear_0_1" x1="555.942" y1="158" x2="555.942" y2="979.6" gradientUnits="userSpaceOnUse">
<stop stop-color="white" stop-opacity="0.95"/>
<stop offset="0.427447" stop-color="#CAE0FF"/>
<stop offset="1" stop-color="#8EAFE6"/>
<stop offset="1" stop-opacity="0.5"/>
</linearGradient>
</defs>
</svg>
